PathFileType	4	(X/Y/Z)	./resultDataOpenSim/trcMotMarkerGrf/sub10/qtm-15-08.trc
DataRate	CameraRate	NumFrames	NumMarkers	Units	OrigDataRate	OrigDataStartFrame	OrigNumFrames
250.000000	250.000000	7	24	m	250.000000	1	507
Frame#	Time	L.Toe.Tip			R.Toe.Tip			L.Ankle.Lat			R.Ankle.Lat			L.Ankle.Med			R.Ankle.Med			L.Heel			R.Heel			L.Knee.Lat			R.Knee.Lat			L.Knee.Med			R.Knee.Med			L.Thigh.Upper			R.Thigh.Upper			L.ASIS			R.ASIS			V.Sacral			L.Acromium			R.Acromium			C7			L.Elbow			R.Elbow			L.Wrist.Lat			R.Wrist.Lat
		X1	Y1	Z1	X2	Y2	Z2	X3	Y3	Z3	X4	Y4	Z4	X5	Y5	Z5	X6	Y6	Z6	X7	Y7	Z7	X8	Y8	Z8	X9	Y9	Z9	X10	Y10	Z10	X11	Y11	Z11	X12	Y12	Z12	X13	Y13	Z13	X14	Y14	Z14	X15	Y15	Z15	X16	Y16	Z16	X17	Y17	Z17	X18	Y18	Z18	X19	Y19	Z19	X20	Y20	Z20	X21	Y21	Z21	X22	Y22	Z22	X23	Y23	Z23	X24	Y24	Z24

1	0	-1.4359371	0.038489201	-0.058221699	-0.8360845	0.12196408	0.048538524	-1.5657684	0.064215265	-0.10212312	-0.97127868	0.077264121	0.059165669	-1.5632935	0.093780507	-0.020566108	-0.95618463	0.12218635	-0.015070691	NaN	NaN	NaN	-0.99651745	0.040313244	-0.004170494	-1.432158	0.42977766	-0.14901265	-1.1467377	0.4386603	0.10925004	-1.436814	0.41407341	-0.027400253	-1.1260206	0.45018545	-0.019204233	-1.325466	0.81067094	-0.21890124	-1.2922252	0.82543176	0.16050571	-1.2546598	0.91738814	-0.16042515	-1.2288606	0.92128345	0.08550514	-1.4434416	0.93561047	-0.014815613	-1.2763856	1.387077	-0.18506617	-1.3217342	1.3865843	0.13525929	-1.3782554	1.423003	-0.03858522	-1.3380154	1.0413478	-0.24886081	-1.4705592	1.0639201	0.16769707	-1.1342467	0.89917826	-0.26314589	-1.3569798	0.86056809	0.24406438
2	0.004	-1.4358857	0.038441814	-0.058220643	-0.82731044	0.12500812	0.047063595	-1.565578	0.065377876	-0.102092	-0.96207045	0.077961337	0.059106403	-1.5635217	0.095182382	-0.020030908	-0.9482123	0.12310822	-0.015213054	NaN	NaN	NaN	-0.98720448	0.040615151	-0.0035931726	-1.4289101	0.4292914	-0.14882681	-1.1398316	0.43797914	0.10995261	-1.4336744	0.41343465	-0.027102698	-1.1222032	0.44901049	-0.019096352	-1.3214065	0.80980489	-0.21892905	-1.2868991	0.82431704	0.1607028	-1.2504208	0.91651945	-0.16055152	-1.223901	0.92036245	0.085318708	-1.4389043	0.93449961	-0.014335231	-1.2719764	1.3859001	-0.18508731	-1.3170368	1.3855408	0.13536022	-1.3739085	1.421949	-0.038538016	-1.3330288	1.0399437	-0.24852322	-1.4659725	1.0626874	0.16717742	-1.1283926	0.8988701	-0.26240936	-1.353808	0.85935481	0.24421926
3	0.008	-1.4358381	0.03840151	-0.058217861	-0.81887213	0.12770562	0.045549156	-1.5653271	0.066262417	-0.10204778	-0.95321928	0.078508589	0.059034902	-1.5631259	0.09593988	-0.019863753	-0.94042822	0.12393718	-0.015303062	NaN	NaN	NaN	-0.97827988	0.040847836	-0.0031404676	-1.4257466	0.42877483	-0.14867984	-1.1334284	0.43729408	0.11051793	-1.4304221	0.41283124	-0.026858193	-1.118305	0.44787687	-0.018928919	-1.3173539	0.80894015	-0.21889787	-1.281371	0.82326354	0.16091815	-1.2461439	0.91562177	-0.16066926	-1.2188699	0.9194429	0.085150271	-1.4343284	0.93340866	-0.01381543	-1.2675951	1.3847462	-0.18508742	-1.3123034	1.3845145	0.13547066	-1.3695475	1.4209009	-0.038493768	-1.3280162	1.0385396	-0.24809397	-1.4615018	1.0616442	0.1668341	-1.1225381	0.89856352	-0.26164524	-1.3506561	0.85814752	0.24438169
4	0.012	-1.4357922	0.03836801	-0.05821342	-0.81099259	0.12982572	0.044006674	-1.5650153	0.066886238	-0.10198577	-0.94495229	0.078817227	0.058965302	-1.5620233	0.096133449	-0.020011422	-0.93301171	0.12458347	-0.015329363	NaN	NaN	NaN	-0.97000091	0.040956963	-0.0028019787	-1.4226495	0.42823532	-0.14856435	-1.1274684	0.43667005	0.11094064	-1.427003	0.4122497	-0.026697288	-1.1142545	0.44682092	-0.018682122	-1.3133045	0.80808229	-0.21880031	-1.2756625	0.82228917	0.16116086	-1.2418103	0.91469328	-0.16077022	-1.2137431	0.91852667	0.085019328	-1.429652	0.93233826	-0.013145442	-1.2632239	1.383624	-0.18505329	-1.3075576	1.3835129	0.13558467	-1.3651548	1.4198609	-0.038435432	-1.3229632	1.037143	-0.24754617	-1.4571371	1.0608099	0.16669248	-1.1166856	0.89825873	-0.26084996	-1.3475071	0.85694555	0.24455495
5	0.016	-1.4357427	0.03833952	-0.058209182	-0.80376396	0.13126501	0.042506361	-1.5646702	0.067433077	-0.10191009	-0.93736442	0.078865676	0.058930972	-1.5606075	0.096309868	-0.020151162	-0.926114	0.1249639	-0.01531669	NaN	NaN	NaN	-0.96248182	0.040916163	-0.0024526107	-1.4195594	0.42769517	-0.14845632	-1.12158	0.43620023	0.11130159	-1.4234744	0.41167116	-0.026601321	-1.1099989	0.4458777	-0.018369002	-1.3092558	0.80723805	-0.21866098	-1.2699487	0.82137587	0.16142472	-1.2374275	0.91375062	-0.16085181	-1.2085782	0.91761081	0.084930547	-1.4247498	0.9312903	-0.012062445	-1.2588315	1.3825291	-0.18498865	-1.3028376	1.3825316	0.13569078	-1.3607272	1.4188317	-0.038342225	-1.3178817	1.0357704	-0.2469144	-1.4527978	1.060086	0.16666808	-1.1108491	0.89795417	-0.26003625	-1.3443436	0.85574835	0.24474095
6	0.02	-1.4356869	0.038317424	-0.058207389	-0.79716337	0.13200136	0.041129274	-1.5643024	0.068026242	-0.10183147	-0.9304709	0.078665462	0.058959389	-1.5593702	0.096746628	-0.020146241	-0.91978622	0.1250265	-0.015287727	NaN	NaN	NaN	-0.95572821	0.040739056	-0.001956702	-1.416453	0.42716548	-0.14835513	-1.1155437	0.43593467	0.11165208	-1.4199368	0.41110979	-0.026518802	-1.1054847	0.44508307	-0.018012241	-1.3052102	0.80640754	-0.21849123	-1.2643606	0.82049179	0.16169981	-1.2330075	0.9128014	-0.16091838	-1.2034655	0.91668929	0.08487137	-1.4194902	0.9302788	-0.010312055	-1.2544003	1.3814559	-0.18490509	-1.2981388	1.3815664	0.13579716	-1.3562707	1.4178148	-0.038214128	-1.3127876	1.0344347	-0.24624102	-1.4484212	1.059388	0.16668141	-1.1050385	0.8976467	-0.25920722	-1.34117	0.85456099	0.24494317
7	0.024	-1.4356262	0.038301675	-0.058208579	-0.79110671	0.13206784	0.039896678	-1.563912	0.068700293	-0.10176722	-0.9242454	0.078247875	0.059060264	-1.5585968	0.097320682	-0.02011781	-0.91396689	0.12477583	-0.01523794	NaN	NaN	NaN	-0.94969044	0.040465386	-0.0011934219	-1.4133275	0.42665971	-0.14826471	-1.1093887	0.43585612	0.11198011	-1.4164544	0.41058016	-0.026409024	-1.1006611	0.44447118	-0.017636639	-1.3011858	0.80559124	-0.21829967	-1.2589218	0.8196133	0.16198921	-1.2285578	0.91184488	-0.16096957	-1.1984591	0.91576255	0.084831827	-1.4139604	0.92931029	-0.0080946517	-1.2499249	1.3804095	-0.18479858	-1.293441	1.3806303	0.13593006	-1.3517889	1.4168125	-0.038053466	-1.3076917	1.0331378	-0.24554502	-1.4439866	1.0586846	0.16669716	-1.0992621	0.89733554	-0.25835676	-1.3379965	0.85338959	0.24516209
